<?xml version="1.0" standalone="no"?>
<!DOCTYPE svg PUBLIC "-//W3C//DTD SVG 20010904//EN"
 "http://www.w3.org/TR/2001/REC-SVG-20010904/DTD/svg10.dtd">
<svg version="1.0" xmlns="http://www.w3.org/2000/svg"
 width="1024.000000pt" height="1024.000000pt" viewBox="0 0 1024.000000 1024.000000"
 preserveAspectRatio="xMidYMid meet">
<metadata>
Created by potrace 1.11, written by Peter Selinger 2001-2013
</metadata>
<g transform="translate(0.000000,1024.000000) scale(0.100000,-0.100000)"
fill="#000000" stroke="none">
<path d="M4470 8779 c-19 -4 -37 -6 -39 -3 -2 2 -9 -3 -15 -11 -6 -8 -26 -16
-45 -17 -18 -1 -36 -8 -38 -15 -3 -7 -9 -10 -14 -8 -5 3 -19 -1 -33 -10 -22
-15 -25 -15 -34 0 -8 16 -9 16 -15 1 -5 -11 -3 -15 5 -10 7 4 8 3 4 -5 -4 -6
-12 -9 -17 -6 -5 3 -26 -13 -48 -35 -22 -23 -46 -43 -54 -44 -8 -1 -22 -8 -31
-15 -8 -7 -19 -10 -25 -7 -5 4 -16 -1 -25 -9 -28 -28 -136 -84 -174 -90 -61
-11 -73 -16 -65 -28 4 -7 -2 -5 -12 3 -10 8 -16 10 -12 4 8 -14 -9 -22 -45
-20 -14 1 -24 -3 -21 -8 4 -5 -1 -7 -11 -3 -9 4 -15 3 -12 -1 2 -4 -11 -12
-29 -18 -19 -6 -32 -7 -29 -2 3 4 -2 5 -10 2 -9 -3 -16 -10 -16 -15 0 -5 -3
-8 -7 -8 -22 4 -36 -4 -60 -28 -15 -16 -23 -21 -19 -13 5 9 2 8 -7 -2 -8 -10
-18 -14 -22 -10 -5 4 -5 2 -2 -4 7 -13 -26 -47 -36 -37 -4 3 -7 -1 -7 -9 0 -9
-15 -28 -32 -42 -76 -61 -87 -71 -88 -81 0 -5 -7 -23 -15 -39 -8 -15 -12 -32
-9 -37 3 -5 -2 -6 -10 -3 -9 3 -17 -3 -21 -17 -4 -12 -11 -27 -16 -33 -53 -64
-118 -193 -162 -326 -41 -120 -45 -139 -53 -234 -4 -49 -13 -81 -33 -115 -55
-94 -124 -308 -148 -456 -2 -16 -8 -46 -12 -66 -9 -42 -7 -251 4 -349 3 -36
13 -73 22 -82 10 -11 12 -24 7 -40 -4 -13 -7 -27 -5 -33 2 -5 5 -26 6 -45 2
-19 7 -55 10 -80 4 -25 8 -57 9 -72 0 -16 3 -28 7 -28 9 0 4 -55 -6 -62 -6 -4
-2 -8 9 -8 16 0 17 -2 5 -17 -8 -10 -9 -14 -2 -10 9 6 11 -4 10 -33 -2 -30 1
-40 13 -41 9 0 7 -4 -8 -11 -24 -12 -25 -29 -1 -36 11 -3 12 -2 0 6 -7 6 -9
12 -4 15 6 4 15 -5 21 -18 8 -18 8 -26 0 -31 -7 -4 -8 -3 -4 4 4 7 3 12 -2 12
-6 0 -13 -7 -16 -16 -3 -8 -2 -13 3 -10 5 3 14 -1 21 -9 10 -12 10 -15 -1 -15
-12 0 -12 -2 0 -9 10 -6 10 -10 1 -16 -6 -4 -9 -14 -6 -22 3 -8 1 -24 -5 -36
-9 -20 -9 -20 4 -4 15 18 33 24 22 8 -3 -5 -2 -12 3 -15 5 -3 7 -19 4 -37 -3
-19 -1 -29 5 -26 5 3 10 0 10 -8 0 -11 -5 -12 -21 -3 -18 10 -19 9 -9 -4 8 -9
9 -18 3 -26 -7 -9 -7 -9 2 -2 17 14 28 12 28 -6 0 -9 -5 -12 -12 -8 -8 5 -9 2
-5 -9 4 -10 1 -17 -5 -17 -6 0 -8 -3 -5 -6 4 -4 13 -1 22 6 13 11 15 10 12 -6
-1 -11 -6 -25 -11 -32 -4 -7 -4 -11 1 -10 4 2 9 -1 10 -7 0 -5 -3 -9 -8 -7 -6
1 -5 -7 1 -18 13 -25 22 -26 13 -2 -3 9 -3 14 1 11 11 -10 16 -50 6 -44 -6 4
-6 -4 0 -20 13 -34 13 -37 -2 -30 -7 4 -5 0 5 -8 22 -18 22 -28 0 -20 -12 4
-10 -1 6 -14 19 -15 21 -22 11 -28 -9 -6 -11 -4 -5 5 5 9 4 11 -4 6 -14 -9 -5
-26 15 -26 8 0 12 -5 9 -10 -4 -6 -12 -7 -18 -3 -7 3 -3 -4 8 -17 12 -14 14
-20 5 -15 -8 5 -20 10 -25 11 -6 1 -28 13 -49 27 -124 85 -247 84 -335 -2 -84
-82 -87 -328 -6 -526 24 -58 145 -421 165 -495 11 -41 20 -102 20 -135 0 -75
15 -129 42 -154 39 -37 135 -82 376 -178 7 -3 12 -2 10 3 -4 12 12 13 45 1 21
-7 26 -14 21 -26 -15 -37 1 -247 27 -351 30 -121 103 -251 214 -380 35 -41
234 -239 291 -290 32 -29 179 -159 220 -195 64 -56 134 -115 209 -175 50 -40
92 -77 93 -81 2 -5 10 -9 17 -9 7 0 15 -4 17 -8 9 -23 290 -219 415 -290 96
-54 249 -106 373 -127 19 -3 42 -8 50 -10 93 -25 444 -25 580 -1 100 18 205
55 255 90 53 37 153 139 192 196 21 30 43 62 50 70 6 8 43 58 82 110 39 52 75
100 81 107 23 28 162 246 214 337 75 130 124 229 175 351 23 55 46 109 51 120
27 60 73 203 94 290 26 110 36 170 51 300 3 33 8 71 10 85 19 113 24 410 12
695 -4 88 -8 214 -8 280 -1 66 -5 125 -9 130 -8 10 16 53 25 48 3 -2 5 0 5 5
0 4 -4 7 -9 7 -5 0 -13 4 -18 9 -4 5 -3 6 3 3 12 -7 22 11 30 51 3 14 1 21 -5
18 -6 -4 -7 4 -3 21 4 16 7 43 6 61 -2 29 -1 32 14 20 15 -11 15 -11 5 3 -7 9
-9 20 -5 24 4 5 1 5 -5 1 -8 -4 -13 -1 -13 9 0 9 4 14 8 11 5 -3 9 1 9 9 0 8
-3 12 -6 10 -6 -3 -6 13 -2 59 1 5 8 2 18 -5 15 -13 15 -12 3 8 -8 12 -18 20
-22 17 -4 -3 -5 2 -2 11 5 13 9 13 23 3 15 -12 15 -11 0 7 -9 11 -14 26 -11
34 3 9 0 11 -9 7 -8 -4 -5 0 5 8 11 9 15 16 9 16 -6 0 -10 11 -9 25 1 18 5 24
16 20 13 -4 13 -4 0 8 -23 18 -25 41 -3 33 16 -5 16 -4 3 6 -21 17 -19 105 2
92 6 -4 4 3 -4 15 -18 25 -12 65 8 57 8 -3 11 0 7 10 -3 9 -12 13 -22 10 -11
-4 -10 -2 3 9 11 8 15 15 10 15 -5 0 -10 9 -11 21 -1 14 3 19 12 15 9 -3 12 0
8 9 -3 8 -8 13 -12 10 -4 -2 -8 2 -8 10 0 8 4 12 9 9 4 -3 8 -1 8 5 0 5 -6 12
-12 14 -10 4 -10 6 0 6 6 1 12 6 12 12 0 5 -5 7 -11 4 -6 -4 -5 2 3 14 7 12
17 21 23 21 5 0 -1 7 -13 16 -22 15 -21 39 2 31 7 -3 13 1 13 9 0 8 -6 13 -13
10 -8 -3 -16 0 -20 6 -5 7 -2 8 6 3 10 -6 12 -4 7 8 -4 10 -1 17 6 18 7 0 3 4
-8 9 -11 5 -14 9 -7 9 14 1 12 86 -3 111 -7 12 -6 13 6 3 12 -9 14 -6 13 21
-1 18 -4 38 -7 43 -4 6 0 16 8 23 8 7 15 18 15 24 0 6 -4 4 -10 -4 -6 -9 -8 5
-8 43 1 33 5 52 10 45 5 -10 8 -8 8 5 0 9 -5 17 -11 17 -8 0 -7 6 2 17 11 13
11 17 2 20 -7 3 -13 11 -13 19 0 9 4 12 10 9 6 -4 6 3 0 21 -9 22 -8 25 4 21
10 -4 13 -1 9 8 -3 8 -9 12 -14 9 -5 -3 -9 -1 -9 5 0 5 4 12 10 16 5 3 7 12 3
20 -3 9 1 15 11 15 9 0 16 5 16 10 0 6 -6 10 -12 10 -10 0 -10 2 0 9 7 4 13
16 13 27 1 53 -4 114 -10 114 -3 0 -6 15 -7 33 -1 50 -12 126 -29 205 -8 41
-15 75 -15 77 0 2 13 6 30 10 36 8 50 25 21 25 -12 0 -21 4 -21 9 0 5 -12 9
-26 9 -15 0 -30 6 -35 13 -9 14 10 26 101 63 l35 14 -30 2 -30 1 24 13 24 13
-23 23 -23 23 27 -5 c21 -4 26 -2 21 9 -4 12 0 14 15 9 70 -22 67 -21 47 -1
-10 10 -33 28 -50 40 -46 30 -77 58 -77 68 0 4 9 3 20 -3 14 -7 20 -7 20 0 0
5 -5 10 -12 10 -6 0 -9 3 -5 6 7 7 -9 23 -38 40 -31 17 -27 28 17 48 43 18 43
19 18 29 -14 5 -29 9 -33 8 -5 -1 -6 3 -2 9 3 5 13 10 21 10 8 0 14 5 14 11 0
5 -4 7 -10 4 -5 -3 -10 -1 -10 5 0 6 12 16 28 22 23 9 24 12 8 16 -15 3 -16 6
-5 14 10 7 1 8 -28 4 -24 -4 -43 -2 -43 2 0 5 -12 8 -27 6 -16 -2 -22 -1 -15
2 6 3 12 10 12 15 0 6 9 19 20 31 22 24 27 44 8 32 -8 -5 -9 -2 -5 10 4 10 1
19 -8 22 -12 5 -12 10 3 32 16 25 16 26 -2 19 -16 -6 -17 -5 -7 7 10 12 8 15
-17 14 -16 -1 -54 11 -85 25 -60 27 -75 44 -31 33 25 -7 25 -6 7 12 -10 10
-39 26 -65 36 -26 10 -58 30 -72 46 -13 16 -27 26 -31 22 -5 -4 -5 2 -1 12 5
16 4 17 -9 6 -12 -10 -15 -10 -15 4 0 10 -4 14 -10 11 -11 -7 -2 23 13 43 19
24 -8 36 -38 16 l-27 -18 -35 40 c-19 21 -29 29 -24 17 18 -36 13 -38 -19 -8
-34 33 -37 44 -12 43 43 0 93 21 54 23 -12 1 -26 3 -32 4 -5 1 -18 3 -27 4
-15 1 -16 3 -3 11 9 6 17 5 22 -3 6 -9 8 -9 8 0 0 6 8 14 18 16 10 3 5 5 -13
7 -26 1 -27 3 -10 9 11 5 23 7 28 4 4 -2 7 1 7 7 0 6 3 9 8 7 4 -3 16 -1 27 4
17 6 16 8 -10 9 -30 2 -30 2 -5 10 17 5 2 7 -43 6 -37 -2 -70 0 -73 3 -3 3
-10 7 -15 7 -30 4 -30 7 1 14 l35 7 -30 2 c-26 2 -27 4 -10 11 15 6 8 9 -27 9
-61 1 -199 45 -235 75 -15 13 -64 45 -108 71 -44 27 -82 51 -85 54 -10 12 -66
38 -95 45 -26 7 -28 9 -14 19 13 10 14 15 4 24 -10 9 -17 8 -31 -3 -18 -14
-18 -15 6 -8 14 3 22 3 18 -1 -5 -5 -21 -9 -37 -10 -38 -2 -35 16 13 66 21 21
33 39 26 39 -9 0 -9 4 1 18 13 15 12 16 -3 3 -10 -7 -16 -17 -13 -21 3 -4 -2
-11 -11 -14 -9 -4 -13 -2 -8 5 4 7 1 10 -7 7 -8 -3 -13 -11 -11 -17 1 -7 -2
-10 -8 -6 -6 4 -21 0 -33 -8 -12 -7 -35 -17 -51 -21 l-30 -7 25 20 c20 18 21
20 4 14 -11 -3 -25 -10 -31 -15 -6 -4 -18 -6 -26 -3 -8 3 -30 -1 -49 -9 -62
-25 -147 -33 -217 -20 -25 5 -36 2 -46 -11 -9 -13 -15 -15 -20 -6 -6 9 -11 9
-22 0 -11 -9 -15 -8 -19 3 -3 7 -20 15 -38 16 -17 1 -47 3 -65 5 -18 2 -56 0
-84 -3 l-50 -7 23 19 24 18 -27 -10 c-38 -13 -35 -7 12 28 38 27 39 30 19 35
-12 3 -34 0 -50 -8 -24 -13 -28 -13 -33 2 -6 15 -10 13 -32 -10 -14 -15 -33
-27 -42 -26 -12 0 -10 3 7 10 34 13 20 22 -15 9 l-29 -10 25 20 c20 16 21 19
5 14 -11 -4 -24 -10 -30 -14 -22 -16 -115 -30 -192 -28 -45 1 -80 5 -78 9 2 3
-11 11 -30 16 -19 6 -37 7 -40 3 -5 -9 -24 -8 -40 1 -5 4 -20 5 -32 4 -13 -1
-23 1 -23 4 0 3 -17 5 -37 5 -21 -1 -40 2 -43 6 -3 3 -21 3 -40 -1z m652 -31
c-7 -7 -12 -8 -12 -2 0 6 3 14 7 17 3 4 9 5 12 2 2 -3 -1 -11 -7 -17z m83 12
c-3 -5 -12 -10 -18 -10 -7 0 -6 4 3 10 19 12 23 12 15 0z m1465 -646 c0 -13
-27 -1 -38 16 -12 20 -12 21 13 4 14 -9 25 -18 25 -20z m494 -834 c-10 -4 -21
-6 -24 -3 -8 7 24 22 34 16 5 -4 1 -10 -10 -13z m-34 -1274 c0 -3 -4 -8 -10
-11 -5 -3 -10 -1 -10 4 0 6 5 11 10 11 6 0 10 -2 10 -4z m-4165 -206 c3 -5 1
-10 -4 -10 -6 0 -11 5 -11 10 0 6 2 10 4 10 3 0 8 -4 11 -10z m265 -1926 c0
-10 -20 -3 -41 16 l-24 20 33 -16 c17 -8 32 -17 32 -20z"/>
<path d="M5800 8740 c-14 -11 -20 -20 -14 -20 6 0 19 9 29 20 23 25 17 25 -15
0z"/>
<path d="M5930 8685 c-7 -8 -8 -15 -2 -15 5 0 15 7 22 15 7 8 8 15 2 15 -5 0
-15 -7 -22 -15z"/>
<path d="M4096 8633 c-14 -14 -24 -29 -20 -32 3 -3 13 5 23 18 14 18 20 20 24
10 3 -8 4 -4 4 9 -1 12 -2 22 -3 22 -1 0 -13 -12 -28 -27z"/>
<path d="M7138 6303 c7 -3 16 -2 19 1 4 3 -2 6 -13 5 -11 0 -14 -3 -6 -6z"/>
<path d="M7149 6288 c-6 -21 -5 -37 2 -32 5 3 7 9 4 14 -3 4 1 11 7 13 10 4
10 6 1 6 -7 1 -13 0 -14 -1z"/>
<path d="M7130 6206 c0 -2 7 -7 16 -10 8 -3 12 -2 9 4 -6 10 -25 14 -25 6z"/>
<path d="M7135 6170 c3 -5 8 -10 11 -10 2 0 4 5 4 10 0 6 -5 10 -11 10 -5 0
-7 -4 -4 -10z"/>
<path d="M7114 5709 c-3 -6 0 -15 7 -20 12 -7 12 -9 0 -9 -8 0 -12 -3 -8 -6
12 -12 28 7 18 20 -6 7 -8 16 -4 19 3 4 4 7 0 7 -3 0 -9 -5 -13 -11z"/>
<path d="M7065 5091 c-6 -11 13 -26 22 -17 4 3 1 6 -6 6 -7 0 -9 5 -6 10 3 6
4 10 1 10 -3 0 -7 -4 -11 -9z"/>
</g>
</svg>
