<?xml version="1.0" standalone="no"?>
<!DOCTYPE svg PUBLIC "-//W3C//DTD SVG 20010904//EN"
 "http://www.w3.org/TR/2001/REC-SVG-20010904/DTD/svg10.dtd">
<svg version="1.0" xmlns="http://www.w3.org/2000/svg"
 width="700.000000pt" height="700.000000pt" viewBox="0 0 700.000000 700.000000"
 preserveAspectRatio="xMidYMid meet">
<metadata>
Created by potrace 1.11, written by Peter Selinger 2001-2013
</metadata>
<g transform="translate(0.000000,700.000000) scale(0.100000,-0.100000)"
fill="#000000" stroke="none">
<path d="M3319 6296 c-2 -2 -44 -7 -94 -11 -234 -18 -517 -86 -763 -184 -569
-227 -1059 -647 -1373 -1177 -123 -207 -232 -467 -293 -694 -24 -92 -30 -115
-42 -190 -3 -19 -8 -38 -9 -41 -2 -3 -7 -28 -10 -55 -4 -27 -8 -60 -11 -74
-12 -72 -19 -195 -19 -370 0 -211 7 -314 32 -450 3 -19 7 -42 8 -50 13 -86 43
-206 81 -330 201 -648 647 -1218 1225 -1565 241 -144 530 -265 779 -323 25 -6
59 -14 75 -18 36 -8 42 -10 120 -23 168 -29 248 -36 460 -36 279 0 341 6 660
69 99 20 325 96 470 159 532 230 980 622 1284 1125 59 99 166 306 188 367 115
312 152 451 189 705 22 152 27 516 8 665 -19 157 -22 175 -33 225 -5 25 -13
61 -16 80 -26 155 -118 416 -220 626 -89 183 -141 269 -268 442 -70 96 -90
121 -167 206 -165 182 -373 358 -578 490 -40 25 -75 46 -79 46 -3 0 -14 6 -22
14 -25 22 -247 130 -356 174 -92 37 -303 107 -350 116 -11 3 -60 13 -110 24
-49 11 -112 23 -140 27 -27 3 -63 8 -79 11 -16 3 -50 7 -75 10 -56 7 -466 15
-472 10z"/>
</g>
</svg>
