<?xml version="1.0" standalone="no"?>
<!DOCTYPE svg PUBLIC "-//W3C//DTD SVG 20010904//EN"
 "http://www.w3.org/TR/2001/REC-SVG-20010904/DTD/svg10.dtd">
<svg version="1.0" xmlns="http://www.w3.org/2000/svg"
 width="922.000000pt" height="922.000000pt" viewBox="0 0 922.000000 922.000000"
 preserveAspectRatio="xMidYMid meet">
<metadata>
Created by potrace 1.11, written by Peter Selinger 2001-2013
</metadata>
<g transform="translate(0.000000,922.000000) scale(0.100000,-0.100000)"
fill="#000000" stroke="none">
<path d="M4866 9204 c-4 -11 -14 -14 -34 -9 -17 3 -49 -1 -77 -10 -50 -17 -68
-22 -125 -34 -39 -8 -161 -6 -200 2 -14 3 -34 8 -45 11 -87 20 -118 26 -175
33 -105 12 -230 8 -300 -11 -36 -10 -72 -19 -80 -21 -8 -2 -36 -10 -62 -18
-26 -8 -49 -13 -52 -10 -6 6 -20 -6 -88 -69 -41 -38 -54 -45 -69 -38 -14 8
-25 4 -49 -20 -17 -16 -35 -30 -40 -30 -6 0 -10 -4 -10 -9 0 -14 -112 -88
-175 -116 -33 -14 -98 -35 -145 -45 -251 -56 -369 -119 -545 -290 -86 -83
-100 -100 -131 -155 -15 -28 -54 -93 -87 -145 -148 -233 -262 -525 -282 -725
-8 -70 -27 -137 -56 -192 -49 -94 -116 -288 -154 -451 -3 -9 -9 -35 -14 -57
-6 -22 -13 -55 -16 -74 -3 -19 -7 -37 -9 -40 -9 -15 -18 -167 -16 -276 2 -163
6 -213 26 -345 3 -19 7 -57 9 -85 2 -27 7 -72 11 -100 4 -27 8 -63 10 -80 1
-16 6 -41 9 -55 3 -14 8 -65 10 -115 2 -49 4 -90 6 -90 7 0 12 -100 7 -150 -2
-16 4 -49 14 -72 9 -23 17 -66 17 -95 0 -29 3 -65 6 -80 3 -16 9 -58 14 -95 6
-38 12 -77 14 -88 23 -94 36 -156 47 -230 5 -33 13 -73 16 -89 4 -16 3 -27 -2
-24 -29 17 -165 77 -198 88 -122 39 -295 -36 -345 -150 -29 -68 -34 -101 -36
-272 l-2 -157 64 -188 c34 -103 66 -195 70 -203 3 -8 7 -17 8 -20 0 -3 29 -88
63 -190 93 -281 97 -298 117 -502 7 -77 27 -129 62 -165 71 -71 497 -251 555
-235 16 4 27 -38 33 -129 4 -51 6 -103 5 -114 0 -11 -1 -24 -1 -30 5 -137 53
-313 119 -435 38 -72 76 -130 85 -130 4 0 7 -5 7 -11 0 -32 352 -405 541 -574
172 -154 214 -192 231 -207 10 -10 18 -16 18 -14 0 2 15 -10 33 -27 18 -18 55
-50 82 -72 68 -56 197 -162 215 -177 72 -59 134 -107 259 -200 80 -59 151
-112 158 -118 7 -5 14 -10 16 -10 2 0 48 -29 103 -65 54 -36 124 -77 154 -92
30 -15 57 -31 60 -34 3 -3 23 -12 45 -19 22 -7 45 -16 50 -20 20 -15 265 -83
340 -95 75 -11 108 -17 129 -21 94 -19 446 -26 576 -12 308 35 470 103 620
258 59 62 100 109 100 115 0 3 10 17 23 32 51 60 86 93 101 93 9 0 17 6 17 13
5 56 15 74 101 192 4 6 20 26 36 45 15 19 59 82 98 140 38 58 71 107 74 110 8
8 29 43 37 60 3 8 18 33 33 55 15 22 30 47 34 55 3 8 24 44 46 80 22 36 67
119 101 184 33 66 67 126 75 133 11 12 19 43 13 56 -1 1 13 27 31 57 17 30 34
61 35 70 7 30 23 77 73 210 63 170 72 200 65 200 -3 0 -1 6 5 13 5 6 13 26 16
42 3 17 12 58 20 92 16 63 26 111 31 148 7 48 16 112 20 135 2 14 7 54 10 90
3 36 8 77 10 92 20 161 24 487 11 1136 l-6 293 23 22 c20 19 22 31 21 87 -1
36 2 72 7 81 5 10 5 37 0 63 -5 25 -5 46 0 46 4 0 8 12 8 28 -1 54 4 82 13 82
5 0 4 9 -2 21 -8 13 -8 24 -1 32 11 14 24 148 22 225 -2 62 -3 49 3 283 2 103
7 206 11 230 19 109 27 300 13 316 -7 9 -7 13 1 13 7 0 9 5 4 13 -13 20 -11
61 5 80 13 14 13 26 5 65 -6 27 -8 121 -5 227 9 317 7 405 -13 504 -2 14 -7
47 -10 75 -3 28 -8 58 -10 66 -2 8 -6 32 -9 52 -3 21 -11 59 -16 85 -10 44 -9
48 12 65 13 10 31 20 41 24 21 7 22 40 1 48 -9 3 -30 6 -47 6 -33 0 -66 15
-56 25 4 3 39 22 80 43 63 31 74 41 77 65 2 17 -3 36 -14 48 -14 16 -15 19 -3
14 9 -3 21 1 28 8 9 12 19 13 46 4 68 -21 58 18 -18 69 -72 48 -88 64 -78 83
10 16 -15 71 -32 71 -5 0 -20 9 -33 19 -22 17 -23 21 -9 34 8 9 25 19 38 23
43 13 47 22 29 70 -17 45 -17 45 8 64 20 16 23 22 14 37 -6 10 -17 19 -25 20
-8 1 -40 5 -72 8 l-57 6 17 32 c10 18 21 34 26 35 13 6 7 40 -9 57 -15 14 -15
22 -5 57 13 41 7 56 -24 59 -64 6 -178 40 -157 46 18 7 15 37 -5 55 -10 8 -31
18 -47 22 -49 12 -114 56 -152 102 -20 24 -43 44 -50 44 -17 0 -19 41 -3 57
15 15 2 53 -18 53 -8 0 -28 -8 -44 -17 -24 -14 -32 -15 -52 -4 -14 7 -31 25
-38 40 -7 14 -15 29 -17 32 -1 4 11 12 28 17 30 11 38 26 20 37 -5 3 -10 17
-10 30 0 19 9 28 35 39 19 8 35 19 35 24 0 22 -36 37 -89 38 -101 2 -101 2
-101 27 0 31 -25 43 -93 46 -126 5 -243 53 -407 166 -105 73 -115 79 -213 126
-51 25 -66 37 -62 49 3 10 1 28 -4 41 -5 13 -10 20 -10 16 -1 -9 -31 18 -31
27 0 3 12 17 26 31 25 25 25 27 9 45 -18 19 -19 19 -91 -20 -66 -36 -109 -51
-91 -33 9 9 -12 33 -29 33 -7 0 -38 -11 -68 -25 -30 -14 -57 -25 -60 -25 -2 0
-17 -5 -33 -12 -35 -14 -36 -14 -107 -26 -60 -10 -92 -9 -181 2 -27 4 -108 9
-180 11 -157 6 -183 9 -198 24 -9 9 -5 18 16 37 22 20 25 29 17 44 -13 24 -26
25 -64 5 -36 -19 -62 -19 -70 0 -7 20 -32 19 -40 -1z"/>
</g>
</svg>
