<svg width="105" height="86" viewBox="0 0 105 86" fill="none" xmlns="http://www.w3.org/2000/svg">
<path fill-rule="evenodd" clip-rule="evenodd" d="M43.2837 3.64096L26.8176 29.1737C26.2134 29.0336 25.5841 28.9595 24.9375 28.9595C24.1146 28.9595 23.3195 29.0795 22.5689 29.3029L8.39081 8.84949C13.6881 3.38989 21.0532 0 29.1845 0C34.246 0 39.0647 1.28921 43.2837 3.64096ZM46.9351 6.05835C49.0195 7.6791 50.8938 9.59523 52.5 11.7701C54.4052 9.19305 56.6861 6.97916 59.2465 5.18957L73.7803 11.4804C73.6951 11.8884 73.6504 12.3114 73.6504 12.7449C73.6504 12.9329 73.6588 13.1189 73.6753 13.3026L30.79 31.376C30.753 31.3393 30.7157 31.3029 30.6781 31.2668L46.9351 6.05835ZM64.0364 2.48382C67.6681 0.869829 71.6604 0 75.8155 0C77.0207 0 78.2091 0.0745037 79.3763 0.219124L78.3256 6.77513C77.5514 6.96363 76.8347 7.29956 76.2069 7.75176L64.0364 2.48382ZM83.6682 1.08808L82.6681 7.32896C83.3456 7.69367 83.9468 8.18264 84.4414 8.76533L92.5383 5.35289C89.873 3.45615 86.8816 1.99959 83.6682 1.08808ZM96.2946 8.52936L87.0269 12.4352L103.233 19.45C101.735 15.2972 99.3423 11.5768 96.2946 8.52936ZM104.622 24.83L84.8046 16.2522C83.8891 17.5702 82.4717 18.5112 80.8301 18.7971L77.0494 42.3888C78.3244 43.2725 79.2489 44.6286 79.5714 46.2049L97.748 49.9298C99.2057 47.6873 100.572 45.374 101.845 42.9944C103.945 38.8188 105 34.307 105 29.5933C105 27.9722 104.87 26.3811 104.622 24.83ZM95.0512 53.8556L78.8647 50.5385C78.084 51.8798 76.8109 52.8975 75.294 53.3426L71.5864 76.478C80.6376 70.4229 88.5885 62.7696 95.0512 53.8556ZM66.6628 79.55C64.4549 80.833 62.1905 82.0238 59.8745 83.1199L31.5824 42.3059C31.8858 41.9017 32.1534 41.4691 32.3804 41.0126L67.4931 48.2082C67.7536 50.3194 69.0824 52.0986 70.9202 52.985L66.6628 79.55ZM55.7994 84.9285C55.0925 85.2216 54.3814 85.5059 53.666 85.7815C53.2903 85.9272 52.8923 86 52.5 86C52.0745 86 51.66 85.9158 51.2676 85.7534C36.4043 80.0169 23.3503 70.4835 13.3009 58.2123L21.8074 45.0218C22.7735 45.4159 23.8303 45.633 24.9375 45.633C26.0654 45.633 27.1407 45.4077 28.1214 44.9997L55.7994 84.9285ZM10.4519 54.5508L18.3228 42.346C18.1418 42.1078 17.9733 41.8595 17.8182 41.6023L5.33913 46.8615C6.92157 49.5175 8.62866 52.0832 10.4519 54.5508ZM3.171 43.0158L15.9255 37.6405L0.386851 34.4562C0.865721 37.4083 1.79078 40.267 3.171 43.0158ZM0.001427 29.8988C0.000475563 29.7989 0 29.699 0 29.5989C0 23.1653 2.03423 17.2047 5.48465 12.3437L18.8478 31.6217C18.3307 32.1796 17.8889 32.8086 17.5386 33.4927L0.001427 29.8988ZM32.9874 35.2094C33.1118 35.6934 33.1939 36.1944 33.2296 36.7082L68.5385 43.944C69.5032 42.5521 71.0273 41.5794 72.7842 41.3534L76.5335 17.9578C76.2027 17.7504 75.893 17.5122 75.6086 17.2473L32.9874 35.2094Z" fill="url(#paint0_radial)"/>
<defs>
<radialGradient id="paint0_radial" cx="0" cy="0" r="1" gradientUnits="userSpaceOnUse" gradientTransform="translate(-3.52467 41.7884) rotate(90) scale(85.905 121.227)">
<stop stop-color="#20C6B7"/>
<stop offset="1" stop-color="#4D9ABF"/>
</radialGradient>
</defs>
</svg>
